<?xml version="1.0" encoding="UTF-8" standalone="no"?>
<!-- Created with Inkscape (http://www.inkscape.org/) -->

<svg
   width="210mm"
   height="297mm"
   viewBox="0 0 210 297"
   version="1.1"
   id="svg1"
   inkscape:version="1.3.2 (091e20e, 2023-11-25, custom)"
   sodipodi:docname="ammo box.svg"
   xmlns:inkscape="http://www.inkscape.org/namespaces/inkscape"
   xmlns:sodipodi="http://sodipodi.sourceforge.net/DTD/sodipodi-0.dtd"
   xmlns="http://www.w3.org/2000/svg"
   xmlns:svg="http://www.w3.org/2000/svg">
  <sodipodi:namedview
     id="namedview1"
     pagecolor="#ffffff"
     bordercolor="#000000"
     borderopacity="0.25"
     inkscape:showpageshadow="2"
     inkscape:pageopacity="0.0"
     inkscape:pagecheckerboard="0"
     inkscape:deskcolor="#d1d1d1"
     inkscape:document-units="mm"
     inkscape:zoom="0.13454628"
     inkscape:cx="561.14519"
     inkscape:cy="-301.01166"
     inkscape:window-width="1366"
     inkscape:window-height="745"
     inkscape:window-x="-8"
     inkscape:window-y="-8"
     inkscape:window-maximized="1"
     inkscape:current-layer="svg1" />
  <defs
     id="defs1" />
  <g
     inkscape:label="Layer 1"
     inkscape:groupmode="layer"
     id="layer1" />
  <g
     id="box1531"
     transform="translate(-231.55, -607.15)">
    <path
       style="fill:none;stroke:#0000FF;stroke-linecap:butt;stroke-linejoin:miter;stroke-width:0.1"
       id="box1531-lid"
       d="M 0 0 h 8.99583 v -12.7 h 30.6917 v 12.7 h 8.99583 h 8.99583 v -12.7 h 30.6917 v 12.7 h 8.99583 h 8.99583 v -12.7 h 30.6917 v 12.7 h 8.99583 h 8.99583 v -12.7 h 30.6917 v 12.7 h 8.99583 h 8.99583 v -12.7 h 30.6917 v 12.7 h 8.99583 h 8.99583 v -12.7 h 30.6917 v 12.7 h 8.99583 h 8.99583 v -12.7 h 30.6917 v 12.7 h 8.99583 h 8.99583 v -12.7 h 30.6917 v 12.7 h 8.99583 h 8.99583 v -12.7 h 30.6917 v 12.7 h 8.99583 v 8.33437 h 12.7 v 29.3687 h -12.7 v 8.33437 v 8.33437 h 12.7 v 29.3687 h -12.7 v 8.33437 v 8.33437 h 12.7 v 29.3687 h -12.7 v 8.33437 v 8.33437 h 12.7 v 29.3687 h -12.7 v 8.33437 h -8.99583 v 12.7 h -30.6917 v -12.7 h -8.99583 h -8.99583 v 12.7 h -30.6917 v -12.7 h -8.99583 h -8.99583 v 12.7 h -30.6917 v -12.7 h -8.99583 h -8.99583 v 12.7 h -30.6917 v -12.7 h -8.99583 h -8.99583 v 12.7 h -30.6917 v -12.7 h -8.99583 h -8.99583 v 12.7 h -30.6917 v -12.7 h -8.99583 h -8.99583 v 12.7 h -30.6917 v -12.7 h -8.99583 h -8.99583 v 12.7 h -30.6917 v -12.7 h -8.99583 h -8.99583 v 12.7 h -30.6917 v -12.7 h -8.99583 v -8.33437 h -12.7 v -29.3687 h 12.7 v -8.33437 v -8.33437 h -12.7 v -29.3687 h 12.7 v -8.33437 v -8.33437 h -12.7 v -29.3687 h 12.7 v -8.33437 v -8.33437 h -12.7 v -29.3687 h 12.7 v -8.33437" />
    <path
       style="fill:none;stroke:#0000FF;stroke-linecap:butt;stroke-linejoin:miter;stroke-width:0.1"
       id="box1531-longside1"
       d="M -12.7 222.25 v -12.7 h 12.7 h 15.3458 v 12.7 h 17.9917 v -12.7 h 15.3458 h 15.3458 v 12.7 h 17.9917 v -12.7 h 15.3458 h 15.3458 v 12.7 h 17.9917 v -12.7 h 15.3458 h 15.3458 v 12.7 h 17.9917 v -12.7 h 15.3458 h 15.3458 v 12.7 h 17.9917 v -12.7 h 15.3458 h 15.3458 v 12.7 h 17.9917 v -12.7 h 15.3458 h 15.3458 v 12.7 h 17.9917 v -12.7 h 15.3458 h 15.3458 v 12.7 h 17.9917 v -12.7 h 15.3458 h 15.3458 v 12.7 h 17.9917 v -12.7 h 15.3458 h 12.7 v 12.7 v 15.0813 h -12.7 v 17.4625 h 12.7 v 15.0813 v 15.0813 h -12.7 v 17.4625 h 12.7 v 15.0813 v 15.0813 h -12.7 v 17.4625 h 12.7 v 15.0813 v 15.0813 h -12.7 v 17.4625 h 12.7 v 15.0813 v 15.0813 h -12.7 v 17.4625 h 12.7 v 15.0813 v 15.0813 h -12.7 v 17.4625 h 12.7 v 15.0813 v 12.7 h -12.7 h -15.3458 v -12.7 h -17.9917 v 12.7 h -15.3458 h -15.3458 v -12.7 h -17.9917 v 12.7 h -15.3458 h -15.3458 v -12.7 h -17.9917 v 12.7 h -15.3458 h -15.3458 v -12.7 h -17.9917 v 12.7 h -15.3458 h -15.3458 v -12.7 h -17.9917 v 12.7 h -15.3458 h -15.3458 v -12.7 h -17.9917 v 12.7 h -15.3458 h -15.3458 v -12.7 h -17.9917 v 12.7 h -15.3458 h -15.3458 v -12.7 h -17.9917 v 12.7 h -15.3458 h -15.3458 v -12.7 h -17.9917 v 12.7 h -15.3458 h -12.7 v -12.7 v -15.0813 h 12.7 v -17.4625 h -12.7 v -15.0813 v -15.0813 h 12.7 v -17.4625 h -12.7 v -15.0813 v -15.0813 h 12.7 v -17.4625 h -12.7 v -15.0813 v -15.0813 h 12.7 v -17.4625 h -12.7 v -15.0813 v -15.0813 h 12.7 v -17.4625 h -12.7 v -15.0813 v -15.0813 h 12.7 v -17.4625 h -12.7 v -15.0813" />
    <path
       style="fill:none;stroke:#0000FF;stroke-linecap:butt;stroke-linejoin:miter;stroke-width:0.1"
       id="box1531-base"
       d="M 0 546.1 h 8.99583 v -12.7 h 30.6917 v 12.7 h 8.99583 h 8.99583 v -12.7 h 30.6917 v 12.7 h 8.99583 h 8.99583 v -12.7 h 30.6917 v 12.7 h 8.99583 h 8.99583 v -12.7 h 30.6917 v 12.7 h 8.99583 h 8.99583 v -12.7 h 30.6917 v 12.7 h 8.99583 h 8.99583 v -12.7 h 30.6917 v 12.7 h 8.99583 h 8.99583 v -12.7 h 30.6917 v 12.7 h 8.99583 h 8.99583 v -12.7 h 30.6917 v 12.7 h 8.99583 h 8.99583 v -12.7 h 30.6917 v 12.7 h 8.99583 v 8.33437 h 12.7 v 29.3687 h -12.7 v 8.33437 v 8.33437 h 12.7 v 29.3687 h -12.7 v 8.33437 v 8.33437 h 12.7 v 29.3687 h -12.7 v 8.33437 v 8.33437 h 12.7 v 29.3687 h -12.7 v 8.33437 h -8.99583 v 12.7 h -30.6917 v -12.7 h -8.99583 h -8.99583 v 12.7 h -30.6917 v -12.7 h -8.99583 h -8.99583 v 12.7 h -30.6917 v -12.7 h -8.99583 h -8.99583 v 12.7 h -30.6917 v -12.7 h -8.99583 h -8.99583 v 12.7 h -30.6917 v -12.7 h -8.99583 h -8.99583 v 12.7 h -30.6917 v -12.7 h -8.99583 h -8.99583 v 12.7 h -30.6917 v -12.7 h -8.99583 h -8.99583 v 12.7 h -30.6917 v -12.7 h -8.99583 h -8.99583 v 12.7 h -30.6917 v -12.7 h -8.99583 v -8.33437 h -12.7 v -29.3687 h 12.7 v -8.33437 v -8.33437 h -12.7 v -29.3687 h 12.7 v -8.33437 v -8.33437 h -12.7 v -29.3687 h 12.7 v -8.33437 v -8.33437 h -12.7 v -29.3687 h 12.7 v -8.33437" />
    <path
       style="fill:none;stroke:#0000FF;stroke-linecap:butt;stroke-linejoin:miter;stroke-width:0.1"
       id="box1531-longside2"
       d="M -12.7 768.35 v -12.7 h 12.7 h 15.3458 v 12.7 h 17.9917 v -12.7 h 15.3458 h 15.3458 v 12.7 h 17.9917 v -12.7 h 15.3458 h 15.3458 v 12.7 h 17.9917 v -12.7 h 15.3458 h 15.3458 v 12.7 h 17.9917 v -12.7 h 15.3458 h 15.3458 v 12.7 h 17.9917 v -12.7 h 15.3458 h 15.3458 v 12.7 h 17.9917 v -12.7 h 15.3458 h 15.3458 v 12.7 h 17.9917 v -12.7 h 15.3458 h 15.3458 v 12.7 h 17.9917 v -12.7 h 15.3458 h 15.3458 v 12.7 h 17.9917 v -12.7 h 15.3458 h 12.7 v 12.7 v 15.0813 h -12.7 v 17.4625 h 12.7 v 15.0813 v 15.0813 h -12.7 v 17.4625 h 12.7 v 15.0813 v 15.0813 h -12.7 v 17.4625 h 12.7 v 15.0813 v 15.0813 h -12.7 v 17.4625 h 12.7 v 15.0813 v 15.0813 h -12.7 v 17.4625 h 12.7 v 15.0813 v 15.0813 h -12.7 v 17.4625 h 12.7 v 15.0813 v 12.7 h -12.7 h -15.3458 v -12.7 h -17.9917 v 12.7 h -15.3458 h -15.3458 v -12.7 h -17.9917 v 12.7 h -15.3458 h -15.3458 v -12.7 h -17.9917 v 12.7 h -15.3458 h -15.3458 v -12.7 h -17.9917 v 12.7 h -15.3458 h -15.3458 v -12.7 h -17.9917 v 12.7 h -15.3458 h -15.3458 v -12.7 h -17.9917 v 12.7 h -15.3458 h -15.3458 v -12.7 h -17.9917 v 12.7 h -15.3458 h -15.3458 v -12.7 h -17.9917 v 12.7 h -15.3458 h -15.3458 v -12.7 h -17.9917 v 12.7 h -15.3458 h -12.7 v -12.7 v -15.0813 h 12.7 v -17.4625 h -12.7 v -15.0813 v -15.0813 h 12.7 v -17.4625 h -12.7 v -15.0813 v -15.0813 h 12.7 v -17.4625 h -12.7 v -15.0813 v -15.0813 h 12.7 v -17.4625 h -12.7 v -15.0813 v -15.0813 h 12.7 v -17.4625 h -12.7 v -15.0813 v -15.0813 h 12.7 v -17.4625 h -12.7 v -15.0813" />
    <path
       style="fill:none;stroke:#0000FF;stroke-linecap:butt;stroke-linejoin:miter;stroke-width:0.1"
       id="box1531-endface2"
       d="M 463.55 0 h 12.7 h 8.73125 v -12.7 h 30.1625 v 12.7 h 8.73125 h 8.73125 v -12.7 h 30.1625 v 12.7 h 8.73125 h 8.73125 v -12.7 h 30.1625 v 12.7 h 8.73125 h 8.73125 v -12.7 h 30.1625 v 12.7 h 8.73125 h 8.73125 v -12.7 h 30.1625 v 12.7 h 8.73125 h 8.73125 v -12.7 h 30.1625 v 12.7 h 8.73125 h 12.7 v 14.6844 h -12.7 v 16.6687 h 12.7 v 14.6844 v 14.6844 h -12.7 v 16.6687 h 12.7 v 14.6844 v 14.6844 h -12.7 v 16.6687 h 12.7 v 14.6844 v 14.6844 h -12.7 v 16.6687 h 12.7 v 14.6844 h -12.7 h -8.73125 v 12.7 h -30.1625 v -12.7 h -8.73125 h -8.73125 v 12.7 h -30.1625 v -12.7 h -8.73125 h -8.73125 v 12.7 h -30.1625 v -12.7 h -8.73125 h -8.73125 v 12.7 h -30.1625 v -12.7 h -8.73125 h -8.73125 v 12.7 h -30.1625 v -12.7 h -8.73125 h -8.73125 v 12.7 h -30.1625 v -12.7 h -8.73125 h -12.7 v -14.6844 h 12.7 v -16.6687 h -12.7 v -14.6844 v -14.6844 h 12.7 v -16.6687 h -12.7 v -14.6844 v -14.6844 h 12.7 v -16.6687 h -12.7 v -14.6844 v -14.6844 h 12.7 v -16.6687 h -12.7 v -14.6844" />
    <path
       style="fill:none;stroke:#0000FF;stroke-linecap:butt;stroke-linejoin:miter;stroke-width:0.1"
       id="box1531-endface1"
       d="M 463.55 546.1 h 12.7 h 8.73125 v -12.7 h 30.1625 v 12.7 h 8.73125 h 8.73125 v -12.7 h 30.1625 v 12.7 h 8.73125 h 8.73125 v -12.7 h 30.1625 v 12.7 h 8.73125 h 8.73125 v -12.7 h 30.1625 v 12.7 h 8.73125 h 8.73125 v -12.7 h 30.1625 v 12.7 h 8.73125 h 8.73125 v -12.7 h 30.1625 v 12.7 h 8.73125 h 12.7 v 14.6844 h -12.7 v 16.6687 h 12.7 v 14.6844 v 14.6844 h -12.7 v 16.6687 h 12.7 v 14.6844 v 14.6844 h -12.7 v 16.6687 h 12.7 v 14.6844 v 14.6844 h -12.7 v 16.6687 h 12.7 v 14.6844 h -12.7 h -8.73125 v 12.7 h -30.1625 v -12.7 h -8.73125 h -8.73125 v 12.7 h -30.1625 v -12.7 h -8.73125 h -8.73125 v 12.7 h -30.1625 v -12.7 h -8.73125 h -8.73125 v 12.7 h -30.1625 v -12.7 h -8.73125 h -8.73125 v 12.7 h -30.1625 v -12.7 h -8.73125 h -8.73125 v 12.7 h -30.1625 v -12.7 h -8.73125 h -12.7 v -14.6844 h 12.7 v -16.6687 h -12.7 v -14.6844 v -14.6844 h 12.7 v -16.6687 h -12.7 v -14.6844 v -14.6844 h 12.7 v -16.6687 h -12.7 v -14.6844 v -14.6844 h 12.7 v -16.6687 h -12.7 v -14.6844" />
  </g>
</svg>
